<?xml version="1.0" standalone="no"?>
<!DOCTYPE svg PUBLIC "-//W3C//DTD SVG 20010904//EN"
 "http://www.w3.org/TR/2001/REC-SVG-20010904/DTD/svg10.dtd">
<svg version="1.0" xmlns="http://www.w3.org/2000/svg"
 width="512.000000pt" height="512.000000pt" viewBox="0 0 512.000000 512.000000"
 preserveAspectRatio="xMidYMid meet">
<metadata>
Created by potrace 1.14, written by Peter Selinger 2001-2017
</metadata>
<g transform="translate(0.000000,512.000000) scale(0.100000,-0.100000)"
fill="#000000" stroke="none">
<path d="M3016 4943 c-13 -21 -70 -110 -125 -198 -55 -88 -104 -164 -109 -170
-4 -5 -19 -29 -32 -52 -13 -24 -28 -44 -34 -44 -6 -1 -80 -2 -164 -3 l-153 -1
-41 65 c-182 292 -272 430 -277 430 -4 0 -6 -144 -6 -319 0 -310 1 -320 21
-343 42 -46 83 -94 102 -117 l19 -25 339 0 c287 -1 340 1 354 14 9 8 43 46 76
84 l59 69 0 323 c0 178 -1 324 -2 324 -2 0 -14 -17 -27 -37z"/>
<path d="M977 3684 l-977 -976 1109 -1107 c1233 -1230 1174 -1172 1167 -1151
-4 12 -20 110 -41 260 -2 14 -11 75 -20 135 -9 61 -18 126 -21 145 -3 19 -9
60 -14 90 -6 30 -12 71 -14 90 -8 55 -32 221 -41 280 -4 23 -6 39 -20 135 -4
28 -21 51 -73 102 l-67 66 0 1454 c0 799 -2 1453 -5 1453 -3 0 -445 -439 -983
-976z"/>
<path d="M3155 3208 l0 -1452 -67 -68 c-38 -38 -68 -72 -69 -76 0 -4 -2 -16
-4 -27 -1 -11 -5 -38 -8 -60 -4 -23 -13 -83 -21 -135 -15 -94 -22 -145 -31
-211 -2 -19 -16 -108 -29 -199 -14 -91 -28 -183 -31 -205 -3 -22 -8 -53 -10
-70 -3 -16 -8 -50 -11 -75 -3 -25 -11 -77 -18 -117 -10 -58 -10 -70 0 -62 7 6
520 516 1139 1134 l1125 1123 -974 973 c-537 536 -979 975 -983 976 -5 2 -8
-650 -8 -1449z"/>
<path d="M2047 4052 c-14 -3 -12 -9 12 -35 16 -18 97 -112 180 -210 l151 -178
-117 -137 c-65 -75 -120 -139 -123 -142 -33 -32 -111 -132 -107 -137 5 -4 184
-7 302 -4 26 1 44 17 119 106 49 58 93 105 97 105 4 0 47 -47 95 -105 58 -71
94 -105 108 -106 167 -5 316 -2 316 6 0 6 -17 29 -38 51 -20 23 -46 52 -57 65
-60 72 -210 248 -231 271 l-24 28 117 137 c65 76 120 140 123 143 6 6 89 107
107 130 10 13 -8 15 -145 13 -87 0 -164 -1 -172 -2 -9 -1 -55 -48 -104 -106
-48 -58 -92 -105 -96 -105 -4 0 -28 24 -52 53 -23 28 -58 68 -76 88 -18 20
-39 45 -46 55 -12 15 -32 18 -168 18 -85 1 -162 0 -171 -2z"/>
<path d="M2326 3070 c-5 -8 -40 -114 -42 -126 -1 -7 -18 -63 -37 -125 -42
-134 -135 -440 -149 -487 -9 -32 5 -93 59 -252 8 -25 17 -54 19 -65 2 -11 11
-40 19 -65 8 -25 40 -128 71 -230 30 -101 59 -187 64 -190 5 -3 14 -35 19 -70
6 -36 13 -74 15 -85 2 -11 7 -42 10 -68 4 -27 9 -59 12 -70 2 -12 6 -42 9 -67
3 -25 7 -52 10 -60 2 -8 7 -35 10 -60 8 -61 11 -76 34 -220 19 -120 26 -163
37 -240 3 -19 9 -60 14 -90 9 -52 13 -77 24 -145 3 -16 10 -67 17 -112 6 -46
15 -83 20 -83 5 0 9 5 9 12 0 7 25 172 56 368 53 336 59 379 68 441 43 293 81
512 96 544 17 36 74 219 196 628 l44 148 -44 147 c-24 81 -61 200 -80 265 -20
64 -52 170 -71 234 -20 65 -38 120 -41 122 -7 7 -465 8 -468 1z"/>
</g>
</svg>
